<svg width="36" height="35" viewBox="0 0 36 35" fill="none" xmlns="http://www.w3.org/2000/svg">
<path d="M25.6133 0L24.0075 2.36381C24.0075 2.36381 24.8825 3.04469 25.3007 4.01533C25.6633 4.8675 25.9259 5.86669 24.5428 7.5382L23.2938 8.78862C19.09 5.20865 14.8178 5.04022 14.8178 5.04022H14.0155L13.5688 5.75393C13.5688 5.75393 9.92885 11.9432 6.43167 18.3338C4.68308 21.5283 2.95305 24.78 1.75116 27.3451C1.14736 28.6269 0.673461 29.7431 0.366565 30.6453C0.216686 31.0963 0.109629 31.476 0.0553875 31.8943C-0.00170931 32.3125 -0.157297 32.8863 0.544993 33.59C1.24871 34.2923 1.82253 34.1353 2.24077 34.0796C2.659 34.024 3.03869 33.9183 3.48976 33.7685C4.39332 33.4616 5.50813 32.9877 6.79138 32.3839C9.35217 31.1806 12.6038 29.4534 15.7998 27.7034C22.1847 24.2005 28.3797 20.5663 28.3797 20.5663L29.0934 20.1195V19.2716C29.0934 19.2716 28.9035 15.0507 25.3464 10.8413L25.836 10.306C25.9588 10.1832 26.0701 10.099 26.1929 9.99336L26.5497 9.68076C28.2341 8.38752 29.8285 8.4389 31.2345 8.79005C32.2099 9.03649 33.132 9.45931 33.9552 10.0376L35.7394 7.80798C35.7394 7.80798 34.155 6.58754 31.9025 6.02371C31.4045 5.90661 30.8973 5.83212 30.3866 5.80103L33.2857 2.90052L31.2331 0.849315L28.2455 3.83833C28.1734 3.50162 28.0687 3.17272 27.9329 2.85627C27.1292 0.983492 25.6133 0 25.6133 0ZM15.5315 8.07348C16.4693 8.16341 19.1514 8.5531 22.3574 11.7762C25.5691 15.0107 25.9645 17.6715 26.0587 18.6007C25.8246 18.7406 24.6041 19.4771 23.6506 20.0281C23.145 18.9067 22.5164 17.8448 21.7764 16.8621L19.5025 18.6021C20.506 19.9396 20.9185 20.8603 21.1526 21.457C18.9171 22.7235 16.6717 23.9725 14.4167 25.2039C14.2782 25.2753 14.1554 25.3538 14.0155 25.4266C13.6702 24.4206 13.174 23.4729 12.5439 22.616L10.2243 24.2661C10.9266 25.2482 11.272 26.0561 11.4291 26.5857C11.4562 26.6756 11.4562 26.697 11.4719 26.7641C9.3379 27.9075 7.27527 29.0052 5.58521 29.7974C4.70449 30.2113 4.07928 30.4397 3.44408 30.6895C3.69531 30.0543 3.92369 29.4291 4.33622 28.5484C5.48957 26.0904 7.19677 22.8844 8.92965 19.7169C9.76612 18.1896 10.4028 17.0462 11.1607 15.7016C11.6175 16.1027 12.2084 16.6437 12.8565 17.4859L15.0861 15.7459C14.3622 14.785 13.5232 13.9163 12.5881 13.1594C14.0826 10.5386 15.2745 8.51456 15.5315 8.07348Z" fill="#FF6700"/>
</svg>
