<svg width="146" height="64" viewBox="0 0 146 64" fill="none" xmlns="http://www.w3.org/2000/svg">
<path d="M80.6133 0L79.0075 2.36381C79.0075 2.36381 79.8825 3.04469 80.3007 4.01533C80.6633 4.8675 80.9259 5.86669 79.5428 7.5382L78.2938 8.78862C74.09 5.20865 69.8178 5.04022 69.8178 5.04022H69.0155L68.5688 5.75393C68.5688 5.75393 64.9288 11.9432 61.4317 18.3338C59.6831 21.5283 57.953 24.78 56.7512 27.3451C56.1474 28.6269 55.6735 29.7431 55.3666 30.6453C55.2167 31.0963 55.1096 31.476 55.0554 31.8943C54.9983 32.3125 54.8427 32.8863 55.545 33.59C56.2487 34.2923 56.8225 34.1353 57.2408 34.0796C57.659 34.024 58.0387 33.9183 58.4898 33.7685C59.3933 33.4616 60.5081 32.9877 61.7914 32.3839C64.3522 31.1806 67.6038 29.4534 70.7998 27.7034C77.1847 24.2005 83.3797 20.5663 83.3797 20.5663L84.0934 20.1195V19.2716C84.0934 19.2716 83.9035 15.0507 80.3464 10.8413L80.836 10.306C80.9588 10.1832 81.0701 10.099 81.1929 9.99336L81.5497 9.68076C83.2341 8.38752 84.8285 8.4389 86.2345 8.79005C87.2099 9.03649 88.132 9.45931 88.9552 10.0376L90.7394 7.80798C90.7394 7.80798 89.155 6.58754 86.9025 6.02371C86.4045 5.90661 85.8973 5.83212 85.3866 5.80103L88.2857 2.90052L86.2331 0.849315L83.2455 3.83833C83.1734 3.50162 83.0687 3.17272 82.9329 2.85627C82.1292 0.983492 80.6133 0 80.6133 0ZM70.5315 8.07348C71.4693 8.16341 74.1514 8.5531 77.3574 11.7762C80.5691 15.0107 80.9645 17.6715 81.0587 18.6007C80.8246 18.7406 79.6041 19.4771 78.6506 20.0281C78.145 18.9067 77.5164 17.8448 76.7764 16.8621L74.5025 18.6021C75.506 19.9396 75.9185 20.8603 76.1526 21.457C73.9171 22.7235 71.6717 23.9725 69.4167 25.2039C69.2782 25.2753 69.1554 25.3538 69.0155 25.4266C68.6702 24.4206 68.174 23.4729 67.5439 22.616L65.2243 24.2661C65.9266 25.2482 66.272 26.0561 66.4291 26.5857C66.4562 26.6756 66.4562 26.697 66.4719 26.7641C64.3379 27.9075 62.2753 29.0052 60.5852 29.7974C59.7045 30.2113 59.0793 30.4397 58.4441 30.6895C58.6953 30.0543 58.9237 29.4291 59.3362 28.5484C60.4896 26.0904 62.1968 22.8844 63.9297 19.7169C64.7661 18.1896 65.4028 17.0462 66.1607 15.7016C66.6175 16.1027 67.2084 16.6437 67.8565 17.4859L70.0861 15.7459C69.3622 14.785 68.5232 13.9163 67.5881 13.1594C69.0826 10.5386 70.2745 8.51456 70.5315 8.07348Z" fill="#FF6700"/>
<path d="M12.2676 53.1016H9.24902C9.22038 53.5742 9.1416 53.9788 9.0127 54.3154C8.88379 54.652 8.70833 54.9277 8.48633 55.1426C8.26432 55.3574 7.99577 55.515 7.68066 55.6152C7.36556 55.7155 7.01107 55.7656 6.61719 55.7656C6.32357 55.7656 6.05501 55.7334 5.81152 55.6689C5.5752 55.5973 5.36035 55.4899 5.16699 55.3467C4.98796 55.2178 4.82682 55.0566 4.68359 54.8633C4.54753 54.6699 4.42936 54.4479 4.3291 54.1973C4.18587 53.832 4.07845 53.4059 4.00684 52.9189C3.94238 52.4248 3.91016 51.8662 3.91016 51.2432V49.1162C3.91016 48.6579 3.93164 48.2318 3.97461 47.8379C4.01758 47.4368 4.08561 47.0716 4.17871 46.7422C4.30046 46.3197 4.46159 45.9508 4.66211 45.6357C4.86979 45.3135 5.12044 45.0664 5.41406 44.8945C5.58594 44.7943 5.77214 44.7191 5.97266 44.6689C6.18034 44.6188 6.40234 44.5938 6.63867 44.5938C7.08268 44.5938 7.46224 44.6546 7.77734 44.7764C8.09961 44.891 8.36816 45.0628 8.58301 45.292C8.79069 45.5283 8.94824 45.8219 9.05566 46.1729C9.17025 46.5238 9.24186 46.932 9.27051 47.3975H12.2783C12.2067 46.5811 12.0348 45.847 11.7627 45.1953C11.4906 44.5436 11.1182 43.9922 10.6455 43.541C10.1729 43.0898 9.59993 42.7425 8.92676 42.499C8.26074 42.2555 7.49805 42.1338 6.63867 42.1338C6.05859 42.1338 5.51432 42.209 5.00586 42.3594C4.50456 42.5026 4.04264 42.7103 3.62012 42.9824C3.14746 43.3047 2.72493 43.6986 2.35254 44.1641C1.98014 44.6296 1.67936 45.1595 1.4502 45.7539C1.24967 46.2409 1.09928 46.7708 0.999023 47.3438C0.898763 47.9095 0.848633 48.5075 0.848633 49.1377V51.2432C0.848633 51.9163 0.902344 52.5537 1.00977 53.1553C1.12435 53.7568 1.28548 54.3083 1.49316 54.8096C1.70801 55.3109 1.9694 55.7692 2.27734 56.1846C2.59245 56.5999 2.95052 56.9544 3.35156 57.248C3.78841 57.5632 4.27897 57.8066 4.82324 57.9785C5.37467 58.1432 5.97266 58.2256 6.61719 58.2256C7.43359 58.2256 8.17839 58.1074 8.85156 57.8711C9.52474 57.6276 10.1048 57.2839 10.5918 56.8398C11.0788 56.3958 11.4655 55.8587 11.752 55.2285C12.0456 54.5983 12.2174 53.8893 12.2676 53.1016ZM21.9893 58H25.0186V57.8174C24.8682 57.5238 24.7536 57.1729 24.6748 56.7646C24.596 56.3564 24.5566 55.8408 24.5566 55.2178V50.2334C24.5566 49.5602 24.4313 48.9694 24.1807 48.4609C23.93 47.9453 23.5827 47.5192 23.1387 47.1826C22.6947 46.846 22.1683 46.5918 21.5596 46.4199C20.958 46.248 20.3063 46.1621 19.6045 46.1621C18.8239 46.1621 18.1292 46.2624 17.5205 46.4629C16.9189 46.6562 16.4105 46.9212 15.9951 47.2578C15.5726 47.5944 15.2503 47.9847 15.0283 48.4287C14.8135 48.8727 14.7061 49.3418 14.7061 49.8359H17.6924C17.6924 49.6283 17.721 49.4385 17.7783 49.2666C17.8428 49.0947 17.9395 48.9479 18.0684 48.8262C18.2116 48.6901 18.3978 48.5863 18.627 48.5146C18.8561 48.4359 19.1283 48.3965 19.4434 48.3965C19.8014 48.3965 20.113 48.443 20.3779 48.5361C20.6501 48.6221 20.8757 48.7474 21.0547 48.9121C21.2266 49.0697 21.3555 49.2594 21.4414 49.4814C21.5273 49.6963 21.5703 49.9398 21.5703 50.2119V50.8994H19.9053C19.0459 50.8994 18.2832 50.9782 17.6172 51.1357C16.9583 51.2861 16.4033 51.5081 15.9521 51.8018C15.4508 52.124 15.0749 52.5358 14.8242 53.0371C14.5736 53.5312 14.4482 54.1006 14.4482 54.7451C14.4482 55.2464 14.5485 55.7119 14.749 56.1416C14.9495 56.5641 15.2288 56.9294 15.5869 57.2373C15.945 57.5452 16.3711 57.7852 16.8652 57.957C17.3665 58.1289 17.9144 58.2148 18.5088 58.2148C18.874 58.2148 19.2142 58.179 19.5293 58.1074C19.8444 58.043 20.1344 57.9499 20.3994 57.8281C20.6572 57.7135 20.8936 57.5775 21.1084 57.4199C21.3232 57.2624 21.513 57.0941 21.6777 56.915C21.7135 57.1227 21.7565 57.3197 21.8066 57.5059C21.8568 57.6921 21.9176 57.8568 21.9893 58ZM19.1426 55.9053C18.8633 55.9053 18.6162 55.873 18.4014 55.8086C18.1937 55.737 18.0182 55.6439 17.875 55.5293C17.7318 55.4076 17.6208 55.2607 17.542 55.0889C17.4704 54.9098 17.4346 54.7165 17.4346 54.5088C17.4346 54.2438 17.4847 54.0003 17.585 53.7783C17.6852 53.5492 17.8392 53.3522 18.0469 53.1875C18.2546 53.0299 18.5231 52.9082 18.8525 52.8223C19.182 52.7292 19.5794 52.6826 20.0449 52.6826H21.5703V54.6807C21.4844 54.8311 21.3662 54.9814 21.2158 55.1318C21.0654 55.2751 20.8864 55.404 20.6787 55.5186C20.471 55.6331 20.2383 55.7262 19.9805 55.7979C19.7227 55.8695 19.4434 55.9053 19.1426 55.9053ZM36.2871 46.1621C35.5065 46.1621 34.7868 46.3519 34.1279 46.7314C33.4691 47.1038 32.9033 47.6195 32.4307 48.2783L32.4092 48.0205L32.291 46.377H29.5088V58H32.4951V51.0176C32.6312 50.6882 32.8031 50.4017 33.0107 50.1582C33.2184 49.9147 33.4691 49.7142 33.7627 49.5566C34.0062 49.4206 34.2819 49.3203 34.5898 49.2559C34.9049 49.1842 35.2559 49.1484 35.6426 49.1484C36.015 49.1484 36.4053 49.1735 36.8135 49.2236C37.2288 49.2666 37.6335 49.3346 38.0273 49.4277L38.4678 46.4521C38.2314 46.3805 37.9199 46.3161 37.5332 46.2588C37.1536 46.1943 36.7383 46.1621 36.2871 46.1621ZM46.793 58.2148C47.9173 58.2148 48.8913 57.9964 49.7148 57.5596C50.5384 57.1227 51.14 56.6357 51.5195 56.0986L50.0264 54.4873C49.6826 54.9313 49.235 55.2643 48.6836 55.4863C48.1322 55.7083 47.5628 55.8193 46.9756 55.8193C46.5602 55.8193 46.1771 55.7549 45.8262 55.626C45.4753 55.4971 45.1637 55.3145 44.8916 55.0781C44.6266 54.849 44.4154 54.5947 44.2578 54.3154C44.1003 54.029 43.9714 53.653 43.8711 53.1875V53.1553H51.7559V51.8877C51.7559 51.0355 51.6377 50.2585 51.4014 49.5566C51.165 48.8477 50.8213 48.2425 50.3701 47.7412C49.9118 47.2399 49.3532 46.8532 48.6943 46.5811C48.0426 46.3018 47.2979 46.1621 46.46 46.1621C45.6507 46.1621 44.9023 46.3089 44.2148 46.6025C43.5273 46.8962 42.9329 47.3079 42.4316 47.8379C41.9303 48.3678 41.54 49.0016 41.2607 49.7393C40.9814 50.4697 40.8418 51.279 40.8418 52.167V52.5967C40.8418 53.3773 40.9814 54.1113 41.2607 54.7988C41.5472 55.4792 41.9518 56.07 42.4746 56.5713C42.9974 57.0798 43.624 57.4808 44.3545 57.7744C45.085 58.068 45.8978 58.2148 46.793 58.2148ZM46.4385 48.5791C46.818 48.5791 47.151 48.64 47.4375 48.7617C47.7311 48.8763 47.9782 49.0339 48.1787 49.2344C48.3792 49.4421 48.5368 49.6855 48.6514 49.9648C48.766 50.2441 48.8232 50.5413 48.8232 50.8564V51.0928H43.9248C43.9964 50.7132 44.1038 50.3695 44.2471 50.0615C44.3903 49.7536 44.5693 49.4886 44.7842 49.2666C44.9919 49.0446 45.2354 48.8763 45.5146 48.7617C45.7939 48.64 46.1019 48.5791 46.4385 48.5791ZM59.8447 43.5303H56.8584V46.377H54.2051V48.5791H56.8584V53.8643C56.8584 54.6305 56.9587 55.2894 57.1592 55.8408C57.3597 56.3851 57.6462 56.8327 58.0186 57.1836C58.3838 57.5417 58.8242 57.8066 59.3398 57.9785C59.8626 58.1432 60.4427 58.2256 61.0801 58.2256C61.4095 58.2256 61.7425 58.2077 62.0791 58.1719C62.4229 58.1432 62.7523 58.1003 63.0674 58.043C63.3825 57.9857 63.6797 57.9141 63.959 57.8281C64.2383 57.735 64.4818 57.6276 64.6895 57.5059L64.3994 55.4541C64.2633 55.4899 64.0986 55.5257 63.9053 55.5615C63.7191 55.5973 63.5186 55.6296 63.3037 55.6582C63.0817 55.694 62.849 55.7227 62.6055 55.7441C62.3691 55.7656 62.1364 55.7764 61.9072 55.7764C61.5921 55.7764 61.3057 55.7406 61.0479 55.6689C60.7972 55.5973 60.5824 55.4756 60.4033 55.3037C60.2243 55.139 60.0846 54.917 59.9844 54.6377C59.8913 54.3512 59.8447 53.9967 59.8447 53.5742V48.5791H64.1846V46.377H59.8447V43.5303ZM78.332 53.1016H75.3135C75.2848 53.5742 75.2061 53.9788 75.0771 54.3154C74.9482 54.652 74.7728 54.9277 74.5508 55.1426C74.3288 55.3574 74.0602 55.515 73.7451 55.6152C73.43 55.7155 73.0755 55.7656 72.6816 55.7656C72.388 55.7656 72.1195 55.7334 71.876 55.6689C71.6396 55.5973 71.4248 55.4899 71.2314 55.3467C71.0524 55.2178 70.8913 55.0566 70.748 54.8633C70.612 54.6699 70.4938 54.4479 70.3936 54.1973C70.2503 53.832 70.1429 53.4059 70.0713 52.9189C70.0068 52.4248 69.9746 51.8662 69.9746 51.2432V49.1162C69.9746 48.6579 69.9961 48.2318 70.0391 47.8379C70.082 47.4368 70.1501 47.0716 70.2432 46.7422C70.3649 46.3197 70.526 45.9508 70.7266 45.6357C70.9342 45.3135 71.1849 45.0664 71.4785 44.8945C71.6504 44.7943 71.8366 44.7191 72.0371 44.6689C72.2448 44.6188 72.4668 44.5938 72.7031 44.5938C73.1471 44.5938 73.5267 44.6546 73.8418 44.7764C74.1641 44.891 74.4326 45.0628 74.6475 45.292C74.8551 45.5283 75.0127 45.8219 75.1201 46.1729C75.2347 46.5238 75.3063 46.932 75.335 47.3975H78.3428C78.2712 46.5811 78.0993 45.847 77.8271 45.1953C77.555 44.5436 77.1826 43.9922 76.71 43.541C76.2373 43.0898 75.6644 42.7425 74.9912 42.499C74.3252 42.2555 73.5625 42.1338 72.7031 42.1338C72.123 42.1338 71.5788 42.209 71.0703 42.3594C70.569 42.5026 70.1071 42.7103 69.6846 42.9824C69.2119 43.3047 68.7894 43.6986 68.417 44.1641C68.0446 44.6296 67.7438 45.1595 67.5146 45.7539C67.3141 46.2409 67.1637 46.7708 67.0635 47.3438C66.9632 47.9095 66.9131 48.5075 66.9131 49.1377V51.2432C66.9131 51.9163 66.9668 52.5537 67.0742 53.1553C67.1888 53.7568 67.3499 54.3083 67.5576 54.8096C67.7725 55.3109 68.0339 55.7692 68.3418 56.1846C68.6569 56.5999 69.015 56.9544 69.416 57.248C69.8529 57.5632 70.3434 57.8066 70.8877 57.9785C71.4391 58.1432 72.0371 58.2256 72.6816 58.2256C73.498 58.2256 74.2428 58.1074 74.916 57.8711C75.5892 57.6276 76.1693 57.2839 76.6562 56.8398C77.1432 56.3958 77.5299 55.8587 77.8164 55.2285C78.11 54.5983 78.2819 53.8893 78.332 53.1016ZM83.7783 47.9775V41.5H80.792V58H83.7783V49.6104C83.8929 49.46 84.0182 49.3239 84.1543 49.2021C84.2975 49.0804 84.4551 48.9766 84.627 48.8906C84.8132 48.7904 85.0208 48.7152 85.25 48.665C85.4792 48.6149 85.7262 48.5898 85.9912 48.5898C86.335 48.5898 86.6429 48.6364 86.915 48.7295C87.1872 48.8154 87.4199 48.9515 87.6133 49.1377C87.8066 49.3239 87.9535 49.5674 88.0537 49.8682C88.1611 50.1689 88.2148 50.527 88.2148 50.9424V58H91.2012V50.9639C91.2012 50.1117 91.0973 49.3848 90.8896 48.7832C90.6891 48.1745 90.4062 47.6768 90.041 47.29C89.6758 46.9033 89.2389 46.6204 88.7305 46.4414C88.222 46.2552 87.6634 46.1621 87.0547 46.1621C86.6393 46.1621 86.2454 46.223 85.873 46.3447C85.5007 46.4665 85.1605 46.6383 84.8525 46.8604C84.652 47.0036 84.4587 47.1719 84.2725 47.3652C84.0934 47.5514 83.9287 47.7555 83.7783 47.9775ZM101.267 58H104.296V57.8174C104.146 57.5238 104.031 57.1729 103.952 56.7646C103.873 56.3564 103.834 55.8408 103.834 55.2178V50.2334C103.834 49.5602 103.709 48.9694 103.458 48.4609C103.207 47.9453 102.86 47.5192 102.416 47.1826C101.972 46.846 101.446 46.5918 100.837 46.4199C100.235 46.248 99.5837 46.1621 98.8818 46.1621C98.1012 46.1621 97.4066 46.2624 96.7979 46.4629C96.1963 46.6562 95.6878 46.9212 95.2725 47.2578C94.8499 47.5944 94.5277 47.9847 94.3057 48.4287C94.0908 48.8727 93.9834 49.3418 93.9834 49.8359H96.9697C96.9697 49.6283 96.9984 49.4385 97.0557 49.2666C97.1201 49.0947 97.2168 48.9479 97.3457 48.8262C97.4889 48.6901 97.6751 48.5863 97.9043 48.5146C98.1335 48.4359 98.4056 48.3965 98.7207 48.3965C99.0788 48.3965 99.3903 48.443 99.6553 48.5361C99.9274 48.6221 100.153 48.7474 100.332 48.9121C100.504 49.0697 100.633 49.2594 100.719 49.4814C100.805 49.6963 100.848 49.9398 100.848 50.2119V50.8994H99.1826C98.3232 50.8994 97.5605 50.9782 96.8945 51.1357C96.2357 51.2861 95.6807 51.5081 95.2295 51.8018C94.7282 52.124 94.3522 52.5358 94.1016 53.0371C93.8509 53.5312 93.7256 54.1006 93.7256 54.7451C93.7256 55.2464 93.8258 55.7119 94.0264 56.1416C94.2269 56.5641 94.5062 56.9294 94.8643 57.2373C95.2223 57.5452 95.6484 57.7852 96.1426 57.957C96.6439 58.1289 97.1917 58.2148 97.7861 58.2148C98.1514 58.2148 98.4915 58.179 98.8066 58.1074C99.1217 58.043 99.4118 57.9499 99.6768 57.8281C99.9346 57.7135 100.171 57.5775 100.386 57.4199C100.601 57.2624 100.79 57.0941 100.955 56.915C100.991 57.1227 101.034 57.3197 101.084 57.5059C101.134 57.6921 101.195 57.8568 101.267 58ZM98.4199 55.9053C98.1406 55.9053 97.8936 55.873 97.6787 55.8086C97.471 55.737 97.2956 55.6439 97.1523 55.5293C97.0091 55.4076 96.8981 55.2607 96.8193 55.0889C96.7477 54.9098 96.7119 54.7165 96.7119 54.5088C96.7119 54.2438 96.762 54.0003 96.8623 53.7783C96.9626 53.5492 97.1165 53.3522 97.3242 53.1875C97.5319 53.0299 97.8005 52.9082 98.1299 52.8223C98.4593 52.7292 98.8568 52.6826 99.3223 52.6826H100.848V54.6807C100.762 54.8311 100.644 54.9814 100.493 55.1318C100.343 55.2751 100.164 55.404 99.9561 55.5186C99.7484 55.6331 99.5156 55.7262 99.2578 55.7979C99 55.8695 98.7207 55.9053 98.4199 55.9053ZM114.716 54.8096C114.716 54.9886 114.669 55.1533 114.576 55.3037C114.49 55.4541 114.358 55.5866 114.179 55.7012C113.993 55.8158 113.753 55.9089 113.459 55.9805C113.173 56.0449 112.836 56.0771 112.449 56.0771C112.127 56.0771 111.812 56.0449 111.504 55.9805C111.203 55.916 110.935 55.8122 110.698 55.6689C110.462 55.5329 110.269 55.3538 110.118 55.1318C109.968 54.9027 109.882 54.6305 109.86 54.3154H107.014C107.014 54.7881 107.128 55.2607 107.357 55.7334C107.594 56.1989 107.938 56.6143 108.389 56.9795C108.84 57.3519 109.398 57.6527 110.064 57.8818C110.738 58.111 111.511 58.2256 112.385 58.2256C113.18 58.2256 113.899 58.1396 114.544 57.9678C115.188 57.7887 115.74 57.5417 116.198 57.2266C116.649 56.9115 116.997 56.5391 117.24 56.1094C117.491 55.6725 117.616 55.1963 117.616 54.6807C117.616 54.1221 117.491 53.6423 117.24 53.2412C116.997 52.833 116.657 52.4857 116.22 52.1992C115.783 51.9199 115.264 51.6908 114.662 51.5117C114.061 51.3327 113.409 51.1859 112.707 51.0713C112.22 50.9997 111.819 50.9173 111.504 50.8242C111.189 50.724 110.942 50.613 110.763 50.4912C110.576 50.3766 110.448 50.2477 110.376 50.1045C110.304 49.9541 110.269 49.793 110.269 49.6211C110.269 49.4492 110.308 49.2881 110.387 49.1377C110.473 48.9801 110.594 48.8441 110.752 48.7295C110.924 48.6006 111.146 48.5003 111.418 48.4287C111.69 48.3571 112.009 48.3213 112.374 48.3213C112.804 48.3213 113.169 48.375 113.47 48.4824C113.778 48.5898 114.021 48.7331 114.2 48.9121C114.329 49.0482 114.426 49.2021 114.49 49.374C114.555 49.5387 114.587 49.7178 114.587 49.9111H117.573C117.573 49.374 117.455 48.8763 117.219 48.418C116.982 47.9596 116.642 47.5622 116.198 47.2256C115.747 46.8962 115.199 46.6383 114.555 46.4521C113.91 46.2588 113.183 46.1621 112.374 46.1621C111.601 46.1621 110.906 46.2588 110.29 46.4521C109.674 46.6455 109.151 46.9069 108.722 47.2363C108.292 47.5658 107.963 47.9489 107.733 48.3857C107.504 48.8226 107.39 49.2809 107.39 49.7607C107.39 50.2549 107.501 50.6917 107.723 51.0713C107.952 51.4508 108.267 51.7839 108.668 52.0703C109.069 52.3639 109.549 52.6146 110.107 52.8223C110.673 53.0228 111.296 53.1911 111.977 53.3271C112.514 53.4274 112.958 53.5277 113.309 53.6279C113.66 53.7282 113.942 53.8356 114.157 53.9502C114.365 54.0719 114.508 54.2008 114.587 54.3369C114.673 54.473 114.716 54.6305 114.716 54.8096ZM126.07 58.2148C127.195 58.2148 128.169 57.9964 128.992 57.5596C129.816 57.1227 130.417 56.6357 130.797 56.0986L129.304 54.4873C128.96 54.9313 128.512 55.2643 127.961 55.4863C127.41 55.7083 126.84 55.8193 126.253 55.8193C125.838 55.8193 125.454 55.7549 125.104 55.626C124.753 55.4971 124.441 55.3145 124.169 55.0781C123.904 54.849 123.693 54.5947 123.535 54.3154C123.378 54.029 123.249 53.653 123.148 53.1875V53.1553H131.033V51.8877C131.033 51.0355 130.915 50.2585 130.679 49.5566C130.442 48.8477 130.099 48.2425 129.647 47.7412C129.189 47.2399 128.631 46.8532 127.972 46.5811C127.32 46.3018 126.575 46.1621 125.737 46.1621C124.928 46.1621 124.18 46.3089 123.492 46.6025C122.805 46.8962 122.21 47.3079 121.709 47.8379C121.208 48.3678 120.817 49.0016 120.538 49.7393C120.259 50.4697 120.119 51.279 120.119 52.167V52.5967C120.119 53.3773 120.259 54.1113 120.538 54.7988C120.825 55.4792 121.229 56.07 121.752 56.5713C122.275 57.0798 122.901 57.4808 123.632 57.7744C124.362 58.068 125.175 58.2148 126.07 58.2148ZM125.716 48.5791C126.095 48.5791 126.428 48.64 126.715 48.7617C127.008 48.8763 127.256 49.0339 127.456 49.2344C127.657 49.4421 127.814 49.6855 127.929 49.9648C128.043 50.2441 128.101 50.5413 128.101 50.8564V51.0928H123.202C123.274 50.7132 123.381 50.3695 123.524 50.0615C123.668 49.7536 123.847 49.4886 124.062 49.2666C124.269 49.0446 124.513 48.8763 124.792 48.7617C125.071 48.64 125.379 48.5791 125.716 48.5791ZM141.99 46.1621C141.21 46.1621 140.49 46.3519 139.831 46.7314C139.172 47.1038 138.606 47.6195 138.134 48.2783L138.112 48.0205L137.994 46.377H135.212V58H138.198V51.0176C138.334 50.6882 138.506 50.4017 138.714 50.1582C138.922 49.9147 139.172 49.7142 139.466 49.5566C139.709 49.4206 139.985 49.3203 140.293 49.2559C140.608 49.1842 140.959 49.1484 141.346 49.1484C141.718 49.1484 142.108 49.1735 142.517 49.2236C142.932 49.2666 143.337 49.3346 143.73 49.4277L144.171 46.4521C143.935 46.3805 143.623 46.3161 143.236 46.2588C142.857 46.1943 142.441 46.1621 141.99 46.1621Z" fill="black"/>
</svg>
