<svg width="19" height="19" viewBox="0 0 19 19" fill="none" xmlns="http://www.w3.org/2000/svg">
<path d="M9.12005 13.44C6.72005 13.44 4.80005 11.52 4.80005 9.11999C4.80005 6.71999 6.72005 4.79999 9.12005 4.79999C11.52 4.79999 13.44 6.71999 13.44 9.11999C13.44 11.52 11.52 13.44 9.12005 13.44ZM9.12005 5.75999C7.24805 5.75999 5.76005 7.24799 5.76005 9.11999C5.76005 10.992 7.24805 12.48 9.12005 12.48C10.992 12.48 12.48 10.992 12.48 9.11999C12.48 7.24799 10.992 5.75999 9.12005 5.75999Z" fill="#A1A1A1"/>
<path d="M10.416 18.24H7.824L7.104 16.032C6.624 15.888 6.144 15.696 5.712 15.456L3.6 16.512L1.776 14.688L2.832 12.576C2.592 12.144 2.4 11.664 2.256 11.184L0 10.416V7.824L2.208 7.104C2.352 6.624 2.544 6.144 2.784 5.712L1.728 3.6L3.552 1.776L5.664 2.832C6.096 2.592 6.576 2.4 7.056 2.256L7.824 0H10.416L11.136 2.208C11.616 2.352 12.096 2.544 12.528 2.784L14.64 1.728L16.464 3.552L15.408 5.664C15.648 6.096 15.84 6.576 15.984 7.056L18.192 7.776V10.368L15.984 11.088C15.84 11.568 15.648 12.048 15.408 12.48L16.464 14.592L14.64 16.416L12.528 15.36C12.096 15.6 11.616 15.792 11.136 15.936L10.416 18.24ZM8.496 17.28H9.744L10.416 15.216L10.656 15.168C11.232 15.024 11.76 14.784 12.288 14.496L12.528 14.352L14.448 15.312L15.312 14.448L14.352 12.528L14.496 12.288C14.784 11.808 15.024 11.232 15.168 10.656L15.216 10.416L17.28 9.744V8.496L15.216 7.824L15.168 7.584C15.024 7.008 14.784 6.48 14.496 5.952L14.352 5.712L15.312 3.792L14.448 2.928L12.528 3.888L12.288 3.744C11.76 3.456 11.232 3.216 10.656 3.072L10.416 3.024L9.744 0.96H8.496L7.824 3.024L7.584 3.072C7.008 3.216 6.48 3.456 5.952 3.744L5.712 3.888L3.792 2.928L2.928 3.792L3.888 5.712L3.744 5.952C3.456 6.432 3.216 7.008 3.072 7.584L3.024 7.824L0.96 8.496V9.744L3.024 10.416L3.072 10.656C3.216 11.232 3.456 11.76 3.744 12.288L3.888 12.528L2.928 14.448L3.792 15.312L5.712 14.352L5.952 14.496C6.48 14.784 7.008 15.024 7.584 15.168L7.824 15.216L8.496 17.28Z" fill="#A1A1A1"/>
</svg>
