<svg width="24" height="24" viewBox="0 0 24 24" fill="none" xmlns="http://www.w3.org/2000/svg">
<path d="M8.62523 0L8.04831 2.10462L5.97138 1.55723L7.47138 3.144L5.97138 4.70123L8.04831 4.15385L8.62523 6.288L9.20215 4.15292L11.2791 4.70123L9.77908 3.14492L11.2791 1.55815L9.20215 2.10646L8.62523 0ZM2.13508 5.94185L1.67354 7.61538L0 7.18154L1.21292 8.424L0 9.66185L1.67354 9.22892L2.13508 10.9025L2.62523 9.22985L4.29877 9.66369L3.08677 8.42123L4.29877 7.18154L2.62523 7.61446L2.13508 5.94185ZM16.5582 6.57692C17.9169 7.17566 19.0717 8.15754 19.8811 9.40237C20.6905 10.6472 21.1194 12.101 21.1154 13.5858C21.1154 17.8145 17.7138 21.2298 13.5 21.2298C12.0123 21.2296 10.5569 20.7957 9.31188 19.9812C8.06689 19.1668 7.08632 18.0071 6.49015 16.644C6.8521 18.6442 7.90553 20.4536 9.46631 21.7559C11.0271 23.0582 12.9959 23.7705 15.0286 23.7683C16.1655 23.77 17.2916 23.5473 18.3423 23.113C19.393 22.6787 20.3477 22.0414 21.1516 21.2374C21.9555 20.4335 22.5929 19.4789 23.0272 18.4282C23.4615 17.3775 23.6842 16.2514 23.6825 15.1145C23.6836 13.082 22.9709 11.1138 21.6688 9.55323C20.3667 7.99268 18.5579 6.93896 16.5582 6.576V6.57692Z" fill="#A1A1A1"/>
</svg>
